<?xml version="1.0" encoding="utf-8"?>
<!-- Generator: Adobe Illustrator 16.0.0, SVG Export Plug-In . SVG Version: 6.00 Build 0)  -->
<!DOCTYPE svg PUBLIC "-//W3C//DTD SVG 1.1//EN" "http://www.w3.org/Graphics/SVG/1.1/DTD/svg11.dtd">
<svg version="1.1" xmlns="http://www.w3.org/2000/svg" xmlns:xlink="http://www.w3.org/1999/xlink" x="0px" y="0px" width="225px"
	 height="176px" viewBox="0 0 225 176" enable-background="new 0 0 225 176" xml:space="preserve">
<g id="圖層_1">
</g>
<g id="切圖">
	<g id="XMLID_1_">
		<g id="XMLID_342_">
			<path fill="#104573" d="M95.373,27.571v6.162v0.451l-43.48,23.908c-3.41,1.889-5.916,4.991-7.004,8.748
				c-1.089,3.76-0.658,7.703,1.232,11.133c2.609,4.744,7.457,7.456,12.488,7.579c-4.293,5.731-3.84,13.926,1.376,19.143
				c5.708,5.709,14.993,5.709,20.704,0l5.217-5.217c3.43,11.256,10.866,20.91,20.991,27.03c6.9,4.19,15.917,1.971,20.108-4.95
				c4.169-6.901,1.952-15.917-4.95-20.107c-5.608-3.39-8.955-9.325-8.955-15.857c0-10.289,8.359-18.649,18.628-18.649
				c10.249,0,18.609,8.36,18.609,18.649c0,6.551-3.328,12.488-8.914,15.836c-3.347,2.012-5.73,5.217-6.677,9.016
				c-0.944,3.8-0.348,7.723,1.686,11.091c2.012,3.349,5.215,5.712,8.995,6.655c3.8,0.945,7.744,0.35,11.091-1.662
				c14.254-8.587,23.107-24.258,23.107-40.936c0-5.134-0.842-10.249-2.527-15.22V33.733v-6.162V5.849H95.373V27.571z M170.937,71.4
				l0.186,0.495c1.56,4.477,2.34,9.098,2.34,13.699c0,14.521-7.701,28.18-20.126,35.656c-1.931,1.17-4.21,1.52-6.41,0.965
				c-2.197-0.555-4.065-1.911-5.216-3.862c-0.821-1.335-1.232-2.834-1.232-4.353c0-0.699,0.082-1.376,0.266-2.074
				c0.535-2.198,1.912-4.047,3.862-5.218c7.458-4.477,11.892-12.384,11.892-21.114c0-13.68-11.111-24.811-24.77-24.811
				c-13.678,0-24.792,11.131-24.792,24.811c0,8.708,4.458,16.616,11.934,21.136c3.986,2.422,5.279,7.639,2.856,11.645
				c-2.424,4.005-7.641,5.28-11.646,2.876c-10.208-6.182-17.293-16.533-19.43-28.385l-1.048-5.793L76.333,100.34
				c-3.306,3.307-8.688,3.307-11.995,0c-3.307-3.306-3.307-8.688,0-11.995l23.764-23.763L63.045,78.364
				c-1.993,1.089-4.273,1.335-6.451,0.698c-2.177-0.616-3.984-2.074-5.072-4.046c-1.089-1.991-1.335-4.292-0.719-6.449
				c0.637-2.176,2.074-3.984,4.068-5.073l46.664-25.654v-4.107h69.401V71.4z M170.937,12.01v15.561h-69.401V12.01H170.937z"/>
		</g>
		<g id="XMLID_340_">
			<polygon fill="#104573" points="134.079,150.547 138.797,150.547 138.797,144.559 144.787,144.559 144.787,139.84 
				138.797,139.84 138.797,133.851 134.079,133.851 134.079,139.84 128.091,139.84 128.091,144.559 134.079,144.559 			"/>
			<polygon fill="#104573" points="114.322,169.479 114.322,163.49 120.31,163.49 120.31,158.77 114.322,158.77 114.322,152.783 
				109.603,152.783 109.603,158.77 103.616,158.77 103.616,163.49 109.603,163.49 109.603,169.479 			"/>
			<polygon fill="#104573" points="152.432,169.479 157.15,169.479 157.15,163.489 163.14,163.489 163.14,158.771 157.15,158.771 
				157.15,152.783 152.432,152.783 152.432,158.771 146.443,158.771 146.443,163.489 152.432,163.489 			"/>
		</g>
	</g>
</g>
<g id="圖層_2">
</g>
</svg>
