<?xml version="1.0" encoding="utf-8"?>
<!-- Generator: Adobe Illustrator 16.0.0, SVG Export Plug-In . SVG Version: 6.00 Build 0)  -->
<!DOCTYPE svg PUBLIC "-//W3C//DTD SVG 1.1//EN" "http://www.w3.org/Graphics/SVG/1.1/DTD/svg11.dtd">
<svg version="1.1" xmlns="http://www.w3.org/2000/svg" xmlns:xlink="http://www.w3.org/1999/xlink" x="0px" y="0px" width="225px"
	 height="176px" viewBox="0 0 225 176" enable-background="new 0 0 225 176" xml:space="preserve">
<g id="圖層_1">
</g>
<g id="切圖">
	<g id="XMLID_343_">
		<path id="XMLID_345_" fill="#0B8DB9" d="M207.433,112.241c-5.511-11.013-17.689-16.609-29.637-13.637l-25.696,6.422
			c-1.141-9.904-7.001-15.747-18.735-18.688L64.606,71.068c0.213-1.506,0.381-2.95,0.5-4.29c0.102-1.205-0.342-2.395-1.221-3.227
			c-6.794-6.438-33.967-8.516-42.134-9.008c-1.109-0.063-2.165,0.326-2.956,1.071c-0.794,0.745-1.246,1.792-1.246,2.885v71.359
			c0,2.188,1.776,3.964,3.965,3.964H45.3c1.713,0,3.234-1.102,3.766-2.735c0.104-0.318,0.643-1.982,1.459-4.561l56.809,18.934
			c6.66,2.514,11.259,3.974,16.427,3.974c8.033,0,17.453-3.521,38.163-11.989l43.606-19.821c0.976-0.445,1.737-1.269,2.094-2.284
			C207.979,114.327,207.916,113.2,207.433,112.241z M42.406,125.894H25.47V62.75c12.742,1.008,26.498,3.195,31.492,5.622
			C54.861,85.735,45.355,116.578,42.406,125.894z M158.767,130.159c-33.348,13.669-34.497,13.249-48.777,7.834l-57.133-19.044
			c3.258-10.792,7.801-26.792,10.401-40.056l68.282,15.175c8.776,2.188,12.313,5.653,12.797,12.892l-7.611,1.895
			c-2.824,0.713-5.829,0.793-8.689,0.214l-34.396-6.883c-2.148-0.436-4.233,0.967-4.662,3.116c-0.428,2.149,0.959,4.234,3.108,4.662
			l34.402,6.882c1.783,0.357,3.607,0.531,5.423,0.531c2.275,0,4.559-0.277,6.747-0.832l10.633-2.656c0.016,0,0.031,0,0.047,0
			l30.375-7.596c6.954-1.712,13.986,0.698,18.355,6.002L158.767,130.159z"/>
		<g id="XMLID_344_">
			<polygon fill="#0B8DB9" points="150.554,43.035 155.272,43.035 155.272,37.047 161.262,37.047 161.262,32.329 155.272,32.329 
				155.272,26.339 150.554,26.339 150.554,32.329 144.565,32.329 144.565,37.047 150.554,37.047 			"/>
			<polygon fill="#0B8DB9" points="124.669,64.205 124.669,58.215 130.658,58.215 130.658,53.495 124.669,53.495 124.669,47.508 
				119.95,47.508 119.95,53.495 113.964,53.495 113.964,58.215 119.95,58.215 119.95,64.205 			"/>
			<polygon fill="#0B8DB9" points="165.08,72.553 169.798,72.553 169.798,66.563 175.788,66.563 175.788,61.845 169.798,61.845 
				169.798,55.857 165.08,55.857 165.08,61.845 159.091,61.845 159.091,66.563 165.08,66.563 			"/>
		</g>
	</g>
</g>
<g id="圖層_2">
</g>
</svg>
