<?xml version="1.0" encoding="utf-8"?>
<!-- Generator: Adobe Illustrator 16.0.0, SVG Export Plug-In . SVG Version: 6.00 Build 0)  -->
<!DOCTYPE svg PUBLIC "-//W3C//DTD SVG 1.1//EN" "http://www.w3.org/Graphics/SVG/1.1/DTD/svg11.dtd">
<svg version="1.1" xmlns="http://www.w3.org/2000/svg" xmlns:xlink="http://www.w3.org/1999/xlink" x="0px" y="0px" width="196.8px"
	 height="196.801px" viewBox="0 0 196.8 196.801" enable-background="new 0 0 196.8 196.801" xml:space="preserve">
<g id="圖層_1">
	<g>
		<circle id="XMLID_801_" fill="none" stroke="#B6D6E3" stroke-width="4.8" stroke-miterlimit="10" cx="98.4" cy="98.4" r="96"/>
		
			<path id="XMLID_1280_" fill="none" stroke="#0B8DB9" stroke-width="4" stroke-linecap="round" stroke-linejoin="round" stroke-miterlimit="10" d="
			M122.654,78.801c-0.609-7.061-5.88-12.528-11.801-12.528h-6.008l-0.011-0.084c-0.906-0.225-1.571-0.931-1.571-1.777
			c0-0.707,0.467-1.313,1.146-1.627l-0.002-0.009c4.381-1.891,7.642-5.873,8.531-10.689c0.082,0.013,0.164,0.02,0.246,0.02
			c1.395,0,2.524-1.749,2.524-3.904c0-2.157-1.129-3.902-2.524-3.902v-2.102c0-2.525-0.735-4.88-2.001-6.864
			c-2.571-4.321-7.357-7.23-12.842-7.23s-10.27,2.909-12.839,7.23c-1.267,1.984-2.003,4.339-2.003,6.864v2.102
			c-1.394,0-2.524,1.745-2.524,3.902c0,2.155,1.13,3.904,2.524,3.904c0.082,0,0.164-0.007,0.244-0.02
			c0.887,4.805,4.137,8.781,8.502,10.675l-0.002,0.013c0.691,0.313,1.168,0.922,1.168,1.638c0,0.855-0.678,1.567-1.595,1.784
			l-0.01,0.077h-5.977c-5.919,0-11.191,5.468-11.799,12.528L73.19,89.693c-0.081,1.423,1.005,2.584,2.425,2.584h45.571
			c1.42,0,2.505-1.161,2.424-2.584L122.654,78.801z"/>
		
			<path id="XMLID_1279_" fill="none" stroke="#0B8DB9" stroke-width="3.2" stroke-linecap="round" stroke-linejoin="round" stroke-miterlimit="10" d="
			M112.626,156.549c-0.357-4.142-3.449-7.349-6.922-7.349h-3.524l-0.006-0.05c-0.531-0.131-0.921-0.545-0.921-1.042
			c0-0.414,0.273-0.77,0.672-0.955l-0.001-0.005c2.569-1.109,4.482-3.445,5.004-6.269c0.048,0.007,0.096,0.011,0.144,0.011
			c0.819,0,1.481-1.026,1.481-2.29c0-1.265-0.663-2.288-1.481-2.288v-1.234c0-1.48-0.43-2.86-1.174-4.024
			c-1.507-2.534-4.315-4.241-7.532-4.241c-3.216,0-6.022,1.707-7.53,4.241c-0.742,1.164-1.175,2.544-1.175,4.024v1.234
			c-0.817,0-1.479,1.023-1.479,2.288c0,1.264,0.663,2.29,1.479,2.29c0.048,0,0.097-0.004,0.144-0.011
			c0.52,2.817,2.426,5.15,4.986,6.261l0,0.008c0.405,0.184,0.685,0.541,0.685,0.96c0,0.501-0.397,0.919-0.937,1.047l-0.006,0.045
			h-3.506c-3.472,0-6.563,3.207-6.921,7.349l-0.491,6.389c-0.048,0.835,0.59,1.516,1.422,1.516h26.73
			c0.833,0,1.469-0.681,1.422-1.516L112.626,156.549z"/>
		
			<path id="XMLID_1277_" fill="none" stroke="#0B8DB9" stroke-width="3.2" stroke-linecap="round" stroke-linejoin="round" stroke-miterlimit="10" d="
			M66.742,137.728c-0.358-4.142-3.449-7.349-6.921-7.349h-3.524l-0.006-0.049c-0.532-0.131-0.922-0.545-0.922-1.042
			c0-0.415,0.274-0.771,0.672-0.955l-0.001-0.005c2.569-1.109,4.482-3.445,5.004-6.27c0.048,0.008,0.096,0.012,0.144,0.012
			c0.818,0,1.48-1.026,1.48-2.291s-0.662-2.288-1.48-2.288v-1.233c0-1.48-0.431-2.861-1.174-4.025
			c-1.507-2.535-4.315-4.241-7.532-4.241s-6.023,1.706-7.531,4.241c-0.742,1.164-1.175,2.545-1.175,4.025v1.233
			c-0.817,0-1.48,1.023-1.48,2.288s0.663,2.291,1.48,2.291c0.049,0,0.097-0.004,0.144-0.012c0.521,2.818,2.427,5.15,4.987,6.261
			l0,0.009c0.405,0.183,0.685,0.54,0.685,0.96c0,0.501-0.398,0.919-0.937,1.046l-0.005,0.045h-3.506
			c-3.472,0-6.563,3.207-6.92,7.349l-0.492,6.39c-0.047,0.835,0.59,1.516,1.422,1.516h26.73c0.833,0,1.469-0.681,1.422-1.516
			L66.742,137.728z"/>
		
			<path id="XMLID_1276_" fill="none" stroke="#0B8DB9" stroke-width="3.2" stroke-linecap="round" stroke-linejoin="round" stroke-miterlimit="10" d="
			M158.51,137.728c-0.357-4.142-3.449-7.349-6.923-7.349h-3.523l-0.006-0.049c-0.532-0.131-0.922-0.545-0.922-1.042
			c0-0.415,0.273-0.771,0.672-0.955l-0.001-0.005c2.57-1.109,4.482-3.445,5.005-6.27c0.048,0.008,0.096,0.012,0.144,0.012
			c0.819,0,1.481-1.026,1.481-2.291s-0.663-2.288-1.481-2.288v-1.233c0-1.48-0.431-2.861-1.174-4.025
			c-1.508-2.535-4.315-4.241-7.532-4.241s-6.023,1.706-7.531,4.241c-0.743,1.164-1.176,2.545-1.176,4.025v1.233
			c-0.817,0-1.479,1.023-1.479,2.288s0.662,2.291,1.479,2.291c0.049,0,0.098-0.004,0.144-0.012c0.52,2.818,2.426,5.15,4.987,6.261
			l-0.001,0.009c0.405,0.183,0.686,0.54,0.686,0.96c0,0.501-0.398,0.919-0.937,1.046l-0.005,0.045h-3.506
			c-3.472,0-6.563,3.207-6.92,7.349l-0.493,6.39c-0.047,0.835,0.59,1.516,1.423,1.516h26.729c0.834,0,1.47-0.681,1.422-1.516
			L158.51,137.728z"/>
		
			<line id="XMLID_1275_" fill="#FFFFFF" stroke="#0B8DB9" stroke-width="4" stroke-linecap="round" stroke-linejoin="round" stroke-miterlimit="10" x1="98" y1="100" x2="98" y2="117.601"/>
		
			<line id="XMLID_1274_" fill="#FFFFFF" stroke="#0B8DB9" stroke-width="4" stroke-linecap="round" stroke-linejoin="round" stroke-miterlimit="10" x1="69.082" y1="97.26" x2="62.142" y2="104.199"/>
		
			<line id="XMLID_1273_" fill="#FFFFFF" stroke="#0B8DB9" stroke-width="4" stroke-linecap="round" stroke-linejoin="round" stroke-miterlimit="10" x1="128.293" y1="97.26" x2="135.233" y2="104.199"/>
	</g>
</g>
<g id="切圖">
</g>
<g id="圖層_2">
</g>
</svg>
