<?xml version="1.0" encoding="utf-8"?>
<!-- Generator: Adobe Illustrator 16.0.0, SVG Export Plug-In . SVG Version: 6.00 Build 0)  -->
<!DOCTYPE svg PUBLIC "-//W3C//DTD SVG 1.1//EN" "http://www.w3.org/Graphics/SVG/1.1/DTD/svg11.dtd">
<svg version="1.1" xmlns="http://www.w3.org/2000/svg" xmlns:xlink="http://www.w3.org/1999/xlink" x="0px" y="0px" width="78px"
	 height="56px" viewBox="0 0 78 56" enable-background="new 0 0 78 56" xml:space="preserve">
<g id="圖層_1">
	<g>
		<path id="XMLID_521_" fill="#B6D6E3" d="M77.35,27.77c0,3.037-2.462,5.5-5.5,5.5h-66c-3.038,0-5.5-2.463-5.5-5.5l0,0
			c0-3.037,2.462-5.5,5.5-5.5h66C74.888,22.27,77.35,24.732,77.35,27.77L77.35,27.77z"/>
		<path id="XMLID_647_" fill="#B6D6E3" d="M76.01,24.041c2.187,2.187,2.187,5.731,0,7.918L53.948,54.021
			c-2.187,2.188-5.732,2.188-7.919,0l0,0c-2.188-2.188-2.188-5.732,0-7.92L68.09,24.041C70.277,21.854,73.823,21.854,76.01,24.041
			L76.01,24.041z"/>
		<path id="XMLID_646_" fill="#B6D6E3" d="M76.01,24.041c2.187,2.187,2.187,5.731,0,7.918l0,0c-2.187,2.188-5.732,2.188-7.919,0
			L46.029,9.898c-2.188-2.188-2.188-5.732,0-7.92l0,0c2.187-2.188,5.732-2.188,7.919,0L76.01,24.041z"/>
	</g>
</g>
<g id="切圖">
</g>
<g id="圖層_2">
</g>
</svg>
