<?xml version="1.0" encoding="utf-8"?>
<!-- Generator: Adobe Illustrator 16.0.0, SVG Export Plug-In . SVG Version: 6.00 Build 0)  -->
<!DOCTYPE svg PUBLIC "-//W3C//DTD SVG 1.1//EN" "http://www.w3.org/Graphics/SVG/1.1/DTD/svg11.dtd">
<svg version="1.1" xmlns="http://www.w3.org/2000/svg" xmlns:xlink="http://www.w3.org/1999/xlink" x="0px" y="0px" width="196.8px"
	 height="196.801px" viewBox="0 0 196.8 196.801" enable-background="new 0 0 196.8 196.801" xml:space="preserve">
<g id="圖層_1">
	<g>
		<circle id="XMLID_1213_" fill="none" stroke="#B6D6E3" stroke-width="4.8" stroke-miterlimit="10" cx="98.4" cy="98.4" r="96"/>
		
			<line id="XMLID_1211_" fill="none" stroke="#0B8DB9" stroke-width="4" stroke-linecap="round" stroke-linejoin="round" stroke-miterlimit="10" x1="69.361" y1="117.688" x2="123.325" y2="117.688"/>
		
			<line id="XMLID_1210_" fill="none" stroke="#0B8DB9" stroke-width="4" stroke-linecap="round" stroke-linejoin="round" stroke-miterlimit="10" x1="108.653" y1="105.376" x2="123.325" y2="105.376"/>
		
			<line id="XMLID_1209_" fill="none" stroke="#0B8DB9" stroke-width="4" stroke-linecap="round" stroke-linejoin="round" stroke-miterlimit="10" x1="108.653" y1="93.064" x2="123.325" y2="93.064"/>
		
			<line id="XMLID_1208_" fill="none" stroke="#0B8DB9" stroke-width="4" stroke-linecap="round" stroke-linejoin="round" stroke-miterlimit="10" x1="69.361" y1="130" x2="123.325" y2="130"/>
		
			<line id="XMLID_1207_" fill="none" stroke="#0B8DB9" stroke-width="4" stroke-linecap="round" stroke-linejoin="round" stroke-miterlimit="10" x1="69.361" y1="142.312" x2="123.325" y2="142.312"/>
		
			<circle id="XMLID_1206_" fill="none" stroke="#0B8DB9" stroke-width="4" stroke-miterlimit="10" cx="83.028" cy="70.251" r="7.417"/>
		<path id="XMLID_1205_" fill="none" stroke="#0B8DB9" stroke-width="4" stroke-miterlimit="10" d="M83.028,84.061
			c-7.684,0-13.606,5.27-13.245,9.266l0.949,12.344h24.591l0.948-12.344C96.634,89.33,90.712,84.061,83.028,84.061z"/>
		<path fill="#0B8DB9" d="M113.485,55.435H79.201c-2.426,0-4.4-1.974-4.4-4.399v-9.081c0-2.426,1.974-4.399,4.4-4.399h34.284
			c2.426,0,4.4,1.974,4.4,4.399v9.081C117.885,53.461,115.911,55.435,113.485,55.435z M79.201,41.555c-0.221,0-0.4,0.18-0.4,0.399
			v9.081c0,0.22,0.179,0.399,0.4,0.399h34.284c0.221,0,0.4-0.18,0.4-0.399v-9.081c0-0.22-0.18-0.399-0.4-0.399H79.201z"/>
		<path id="XMLID_383_" fill="#0B8DB9" d="M142.151,41.358c0.259,0,0.519,0.099,0.717,0.298l7.173,7.173
			c0.396,0.396,0.396,1.038,0,1.435l-22.954,22.953c-0.198,0.197-0.458,0.296-0.717,0.296c-0.259,0-0.519-0.099-0.717-0.296
			l-7.173-7.173c-0.396-0.396-0.396-1.038,0-1.435l22.954-22.953C141.632,41.457,141.892,41.358,142.151,41.358"/>
		<g>
			<path fill="#0B8DB9" d="M132.944,44.86c-0.581-0.124-1.184-0.19-1.805-0.19H116.4v4h12.734L132.944,44.86z"/>
			<path fill="#0B8DB9" d="M136.4,70.043v80.117c0,2.805-2.457,5.51-5.261,5.51H61.547c-2.805,0-5.147-2.705-5.147-5.51V53.499
				c0-2.805,2.343-4.829,5.147-4.829H76.4v-4H61.547c-5.01,0-9.147,3.818-9.147,8.829v96.661c0,5.011,4.137,9.51,9.147,9.51h69.591
				c5.01,0,9.261-4.499,9.261-9.51V66.043L136.4,70.043z"/>
		</g>
		<path id="XMLID_1375_" fill="#0B8DB9" d="M119.25,69.683c0.761,0.76,2.004,2.005,2.764,2.764l2.072,2.072
			c0.76,0.761,0.561,1.575-0.442,1.813l-2.688,0.637c-1.002,0.237-2.645,0.625-3.648,0.863l-2.687,0.637
			c-1.003,0.238-1.63-0.39-1.393-1.393l0.638-2.687c0.237-1.003,0.625-2.646,0.863-3.649l0.636-2.688
			c0.237-1.002,1.053-1.202,1.813-0.441L119.25,69.683z"/>
	</g>
</g>
<g id="切圖">
</g>
<g id="圖層_2">
</g>
</svg>
