<?xml version="1.0" encoding="utf-8"?>
<!-- Generator: Adobe Illustrator 16.0.0, SVG Export Plug-In . SVG Version: 6.00 Build 0)  -->
<!DOCTYPE svg PUBLIC "-//W3C//DTD SVG 1.1//EN" "http://www.w3.org/Graphics/SVG/1.1/DTD/svg11.dtd">
<svg version="1.1" xmlns="http://www.w3.org/2000/svg" xmlns:xlink="http://www.w3.org/1999/xlink" x="0px" y="0px" width="196.8px"
	 height="196.801px" viewBox="0 0 196.8 196.801" enable-background="new 0 0 196.8 196.801" xml:space="preserve">
<g id="圖層_1">
	<g>
		<circle id="XMLID_799_" fill="none" stroke="#B6D6E3" stroke-width="4.8" stroke-miterlimit="10" cx="98.4" cy="98.4" r="96"/>
		<path id="XMLID_1266_" fill="#0B8DB9" d="M101.614,85.959v3.062c2.022,0.209,3.756,0.624,5.202,1.248
			c1.445,0.622,2.708,1.567,3.785,2.834c0.852,0.964,1.508,1.956,1.97,2.976c0.462,1.021,0.695,1.957,0.695,2.808
			c0,0.945-0.345,1.763-1.036,2.451c-0.689,0.69-1.526,1.035-2.508,1.035c-1.852,0-3.053-1.001-3.6-3.005
			c-0.623-2.362-2.126-3.93-4.508-4.705v11.791c2.344,0.644,4.209,1.23,5.6,1.758c1.388,0.53,2.631,1.296,3.727,2.297
			c1.172,1.039,2.074,2.281,2.707,3.727c0.634,1.446,0.95,3.029,0.95,4.749c0,2.154-0.504,4.172-1.516,6.052
			c-1.011,1.881-2.5,3.417-4.465,4.606c-1.964,1.19-4.299,1.899-7.002,2.126v7.059c0,1.114-0.107,1.928-0.325,2.438
			s-0.695,0.766-1.431,0.766c-0.682,0-1.158-0.209-1.433-0.624c-0.273-0.416-0.411-1.058-0.411-1.928v-7.653
			c-2.211-0.246-4.143-0.766-5.795-1.56c-1.655-0.792-3.035-1.78-4.141-2.962c-1.105-1.182-1.922-2.408-2.452-3.686
			c-0.528-1.274-0.794-2.527-0.794-3.755c0-0.908,0.355-1.725,1.064-2.452c0.708-0.727,1.592-1.091,2.65-1.091
			c0.85,0,1.569,0.197,2.155,0.595c0.584,0.396,0.992,0.955,1.219,1.672c0.509,1.55,0.955,2.735,1.333,3.559
			c0.376,0.821,0.949,1.573,1.714,2.253c0.766,0.681,1.781,1.2,3.047,1.56v-13.182c-2.533-0.699-4.648-1.479-6.35-2.338
			c-1.7-0.86-3.08-2.085-4.138-3.672c-1.058-1.587-1.587-3.628-1.587-6.122c0-3.25,1.034-5.916,3.103-7.995
			c2.07-2.078,5.061-3.287,8.972-3.628v-3.005c0-1.586,0.595-2.381,1.786-2.381C101.009,83.635,101.614,84.41,101.614,85.959z
			 M98.014,105.405V94.549c-1.588,0.472-2.825,1.096-3.713,1.87c-0.889,0.775-1.333,1.947-1.333,3.516
			c0,1.492,0.416,2.622,1.247,3.387C95.048,104.087,96.314,104.781,98.014,105.405z M101.614,113.824v12.416
			c1.91-0.378,3.383-1.144,4.424-2.296c1.037-1.153,1.559-2.495,1.559-4.025c0-1.645-0.508-2.915-1.517-3.813
			C105.067,115.209,103.58,114.448,101.614,113.824z"/>
		<path id="XMLID_1265_" fill="none" stroke="#0B8DB9" stroke-width="3.9852" stroke-miterlimit="10" d="M99.458,37.831"/>
		<path id="XMLID_1263_" fill="none" stroke="#0B8DB9" stroke-width="4" stroke-miterlimit="10" d="M119.459,64.581
			c0,2.65-1.997,4.8-4.457,4.8H83.914c-2.459,0-4.457-2.149-4.457-4.8l0,0c0-2.651,1.997-4.8,4.457-4.8h31.089
			C117.462,59.781,119.459,61.93,119.459,64.581L119.459,64.581z"/>
		<g>
			<path fill="#0B8DB9" d="M81.166,60.752c0.758-0.641,1.711-1.082,2.749-1.082h2.403c-7.799-4-13.547-12.512-15.046-18.15
				c1.853-0.456,3.042-1.413,4.05-2.247c1.167-0.967,2.01-1.649,3.865-1.649c1.855,0,2.699,0.704,3.867,1.67
				c1.361,1.127,3.055,2.532,6.264,2.532c3.211,0,4.905-1.399,6.266-2.526c1.168-0.967,2.012-1.664,3.869-1.664
				c1.855,0,2.699,0.698,3.867,1.665c1.361,1.127,3.055,2.528,6.264,2.528c3.211,0,4.906-1.401,6.268-2.527
				c1.168-0.966,2.013-1.664,3.87-1.664s2.702,0.698,3.87,1.664c1.009,0.834,2.2,1.764,4.055,2.219
				c-1.498,5.639-7.246,14.15-15.043,18.15h2.401c1.035,0,1.985,0.438,2.742,1.078c8.015-6.03,13.396-14.813,13.984-20.639
				c0.053-0.529-0.12-1.041-0.476-1.438c-0.356-0.393-0.863-0.611-1.395-0.611c-1.857,0-2.702-0.694-3.871-1.662
				c-1.362-1.125-3.056-2.524-6.267-2.524s-4.905,1.401-6.267,2.528c-1.168,0.966-2.013,1.665-3.871,1.665
				c-1.855,0-2.699-0.698-3.867-1.665c-1.361-1.125-3.055-2.527-6.264-2.527c-3.211,0-4.905,1.402-6.266,2.528
				c-1.168,0.967-2.012,1.664-3.869,1.664c-1.855,0-2.699-0.697-3.867-1.664c-1.361-1.126-3.055-2.528-6.264-2.528
				s-4.902,1.402-6.263,2.528c-1.167,0.967-2.01,1.664-3.865,1.664c-0.532,0-1.038,0.226-1.395,0.62
				c-0.356,0.395-0.529,0.893-0.476,1.422C67.776,45.934,73.153,54.721,81.166,60.752z"/>
			<path fill="#0B8DB9" d="M116.916,68.556c-0.581,0.299-1.228,0.114-1.913,0.114h-6.748c22.737,8,40.726,40.073,40.726,56.867
				c0,18.281-22.69,33.33-50.581,33.33s-50.581-15.138-50.581-33.419c0-16.793,17.988-48.778,40.726-56.778h-4.63
				c-1.083,0-2.076-0.062-2.848-0.755c-21.521,11.289-37.247,41.038-37.247,57.8c0,20.486,24.485,37.241,54.581,37.241
				s54.581-16.8,54.581-37.286C152.981,109.217,137.828,80.287,116.916,68.556z"/>
		</g>
	</g>
</g>
<g id="切圖">
</g>
<g id="圖層_2">
</g>
</svg>
