<?xml version="1.0" encoding="utf-8"?>
<!-- Generator: Adobe Illustrator 16.0.0, SVG Export Plug-In . SVG Version: 6.00 Build 0)  -->
<!DOCTYPE svg PUBLIC "-//W3C//DTD SVG 1.1//EN" "http://www.w3.org/Graphics/SVG/1.1/DTD/svg11.dtd">
<svg version="1.1" xmlns="http://www.w3.org/2000/svg" xmlns:xlink="http://www.w3.org/1999/xlink" x="0px" y="0px" width="196.8px"
	 height="196.801px" viewBox="0 0 196.8 196.801" enable-background="new 0 0 196.8 196.801" xml:space="preserve">
<g id="圖層_1">
	<g>
		<circle id="XMLID_1204_" fill="none" stroke="#B6D6E3" stroke-width="4.8" stroke-miterlimit="10" cx="98.4" cy="98.4" r="96"/>
		
			<line id="XMLID_1203_" fill="none" stroke="#0B8DB9" stroke-width="4.7026" stroke-linecap="round" stroke-linejoin="round" stroke-miterlimit="10" x1="74.131" y1="51.024" x2="111.467" y2="51.024"/>
		
			<line id="XMLID_1202_" fill="none" stroke="#0B8DB9" stroke-width="4.7026" stroke-linecap="round" stroke-linejoin="round" stroke-miterlimit="10" x1="74.131" y1="61.826" x2="111.467" y2="61.826"/>
		
			<line id="XMLID_1196_" fill="none" stroke="#0B8DB9" stroke-width="4.7026" stroke-linecap="round" stroke-linejoin="round" stroke-miterlimit="10" x1="74.131" y1="72.628" x2="129.676" y2="72.628"/>
		
			<line id="XMLID_1194_" fill="none" stroke="#0B8DB9" stroke-width="4.7026" stroke-linecap="round" stroke-linejoin="round" stroke-miterlimit="10" x1="74.131" y1="83.43" x2="129.676" y2="83.43"/>
		
			<line id="XMLID_830_" fill="none" stroke="#0B8DB9" stroke-width="4.7026" stroke-linecap="round" stroke-linejoin="round" stroke-miterlimit="10" x1="74.131" y1="94.231" x2="129.676" y2="94.231"/>
		
			<path id="XMLID_826_" fill="none" stroke="#0B8DB9" stroke-width="3.919" stroke-linecap="round" stroke-linejoin="round" stroke-miterlimit="10" d="
			M123.254,37.41c-0.418,0.406-0.682,0.973-0.682,1.6v15.771c0,1.226,0.997,2.229,2.215,2.229h15.684
			c0.624,0,1.187-0.266,1.591-0.686L123.254,37.41z"/>
		<g id="XMLID_1344_">
			<g>
				<path fill="#0B8DB9" d="M69.17,138.309c4.354,0.722,9.492-1.754,9.659-6.572c0.149-4.32-4.255-7.638-7.471-3.844
					c-2.632,3.104,1.322,8.852,4.601,9.65c4.208,1.024,10.611,1.145,9.606-4.699c-0.247-1.438-2.648-1.439-2.893,0
					c-1.041,6.114,9.796,8.975,9.519,2.878c-0.752,0.432-1.505,0.863-2.257,1.296c3.545,2.449,9.831,1.53,13.894,1.518
					c1.934-0.006,1.935-3.006,0-3c-3.464,0.011-9.417,0.939-12.379-1.109c-0.927-0.64-2.307,0.208-2.257,1.296
					c0.025,0.558-4.01,0.175-3.626-2.081c-0.964,0-1.929,0-2.893,0c0.564,3.283-7.29,0.057-7.764-0.404
					c-2.235-2.174,0.47-5.307,0.92-1.5c0.336,2.837-3.986,3.99-5.861,3.68C68.076,135.102,67.265,137.992,69.17,138.309
					L69.17,138.309z"/>
			</g>
		</g>
		<g>
			<path fill="#0B8DB9" d="M144.4,88.773V55.441l-4-4v40.417C141.4,90.78,142.4,89.743,144.4,88.773z"/>
			<path fill="#0B8DB9" d="M140.4,124.207v15.617c0,1.544-1.681,2.846-3.225,2.846h-70.4c-1.544,0-2.375-1.302-2.375-2.846v-97.6
				c0-1.544,0.831-2.555,2.375-2.555h61.183l-4-4H66.775c-3.75,0-6.375,2.806-6.375,6.555v97.6c0,3.75,2.625,6.846,6.375,6.846h70.4
				c3.75,0,7.225-3.096,7.225-6.846v-18.647C142.4,122.239,141.4,123.259,140.4,124.207z"/>
		</g>
		<polygon id="XMLID_1286_" fill="none" stroke="#0B8DB9" stroke-width="4" stroke-miterlimit="10" points="115.923,132.637 
			130.384,131.296 132.6,124.068 128.547,120.014 124.492,115.96 117.265,118.176 		"/>
		<path fill="#0B8DB9" d="M124.109,127.418c-0.767,0-1.487-0.298-2.029-0.84c-1.118-1.12-1.118-2.939,0-4.059
			c1.085-1.086,2.974-1.085,4.058,0c1.118,1.119,1.118,2.938,0,4.058C125.596,127.12,124.875,127.418,124.109,127.418z
			 M124.109,123.667c-0.235,0-0.457,0.091-0.624,0.259c-0.343,0.343-0.343,0.902,0,1.246c0.333,0.333,0.913,0.334,1.247,0
			c0.343-0.344,0.343-0.903,0-1.247C124.565,123.758,124.344,123.667,124.109,123.667z"/>
		
			<line id="XMLID_1284_" fill="#FFFFFF" stroke="#0B8DB9" stroke-width="1.9879" stroke-miterlimit="10" x1="115.923" y1="132.637" x2="122.908" y2="125.652"/>
		
			<line id="XMLID_1283_" fill="#FFFFFF" stroke="#0B8DB9" stroke-width="4" stroke-linecap="round" stroke-linejoin="round" stroke-miterlimit="10" x1="154.329" y1="94.231" x2="144.896" y2="103.664"/>
		<path fill="#0B8DB9" d="M130.4,144.67v3.107c0,1.544-1.339,2.893-2.883,2.893h-70.4c-1.544,0-2.717-1.349-2.717-2.893v-97.6
			c0-1.544,1.173-2.508,2.717-2.508H61.4v-4h-4.283c-3.75,0-6.717,2.759-6.717,6.508v97.6c0,3.75,2.968,6.893,6.717,6.893h70.4
			c3.75,0,6.883-3.143,6.883-6.893v-3.107H130.4z"/>
		<path fill="#0B8DB9" d="M162.767,85.793c-0.966-0.966-2.29-1.456-3.934-1.456c-5.508,0-14.859,5.792-23.821,14.755
			c-5.241,5.24-9.56,10.813-12.162,15.689c-0.373,0.699-0.686,1.352-0.968,1.979l2.611-0.801l1.485,1.484
			c0.125-0.253,0.259-0.513,0.402-0.78c2.421-4.538,6.491-9.774,11.461-14.744c8.916-8.917,17.31-13.583,20.993-13.583
			c0.307,0,0.858,0.037,1.106,0.284c1.493,1.494-1.847,10.647-13.298,22.1c-5.781,5.779-11.332,9.761-15.532,11.856l1.492,1.491
			l-0.804,2.623c5.156-2.312,11.506-6.977,17.673-13.143C159.669,103.348,167.512,90.539,162.767,85.793z"/>
	</g>
</g>
<g id="切圖">
</g>
<g id="圖層_2">
</g>
</svg>
