<?xml version="1.0" encoding="utf-8"?>
<!-- Generator: Adobe Illustrator 16.0.0, SVG Export Plug-In . SVG Version: 6.00 Build 0)  -->
<!DOCTYPE svg PUBLIC "-//W3C//DTD SVG 1.1//EN" "http://www.w3.org/Graphics/SVG/1.1/DTD/svg11.dtd">
<svg version="1.1" xmlns="http://www.w3.org/2000/svg" xmlns:xlink="http://www.w3.org/1999/xlink" x="0px" y="0px" width="196.8px"
	 height="196.801px" viewBox="0 0 196.8 196.801" enable-background="new 0 0 196.8 196.801" xml:space="preserve">
<g id="圖層_1">
	<g>
		<circle id="XMLID_798_" fill="none" stroke="#B6D6E3" stroke-width="4.8" stroke-miterlimit="10" cx="98.4" cy="98.4" r="96"/>
		
			<line id="XMLID_775_" fill="none" stroke="#0B8DB9" stroke-width="3.2" stroke-linecap="round" stroke-linejoin="round" stroke-miterlimit="10" x1="116.316" y1="87.507" x2="143.011" y2="87.507"/>
		
			<line id="XMLID_774_" fill="none" stroke="#0B8DB9" stroke-width="3.2" stroke-linecap="round" stroke-linejoin="round" stroke-miterlimit="10" x1="116.316" y1="96.281" x2="143.011" y2="96.281"/>
		
			<line id="XMLID_766_" fill="none" stroke="#0B8DB9" stroke-width="3.2" stroke-linecap="round" stroke-linejoin="round" stroke-miterlimit="10" x1="116.316" y1="105.057" x2="143.011" y2="105.057"/>
		
			<line id="XMLID_764_" fill="none" stroke="#0B8DB9" stroke-width="3.2" stroke-linecap="round" stroke-linejoin="round" stroke-miterlimit="10" x1="103.485" y1="69.957" x2="143.011" y2="69.957"/>
		
			<line id="XMLID_763_" fill="none" stroke="#0B8DB9" stroke-width="3.2" stroke-linecap="round" stroke-linejoin="round" stroke-miterlimit="10" x1="103.485" y1="78.731" x2="143.011" y2="78.731"/>
		<path id="XMLID_762_" fill="none" stroke="#0B8DB9" stroke-width="4" stroke-miterlimit="10" d="M154.4,62.367v66.467
			c0,3.72-3.222,6.767-7.16,6.767H49.561c-3.939,0-7.161-3.047-7.161-6.767V62.367c0-3.72,3.222-6.767,7.161-6.767h97.679
			C151.178,55.601,154.4,58.647,154.4,62.367z"/>
		
			<path id="XMLID_1254_" fill="none" stroke="#0B8DB9" stroke-width="4" stroke-linecap="round" stroke-linejoin="round" stroke-miterlimit="10" d="
			M75.261,158.143h46.278c-6.616-5.285-10.86-13.416-10.86-22.542H86.121C86.121,144.727,81.877,152.857,75.261,158.143z"/>
		
			<line id="XMLID_1253_" fill="none" stroke="#0B8DB9" stroke-width="4" stroke-miterlimit="10" x1="42.4" y1="117.601" x2="154.4" y2="117.601"/>
		<circle id="XMLID_1252_" fill="#0B8DB9" cx="97.38" cy="125.801" r="2.6"/>
		
			<line id="XMLID_1251_" fill="none" stroke="#0B8DB9" stroke-width="3.661" stroke-linecap="round" stroke-linejoin="round" stroke-miterlimit="10" x1="66.4" y1="158.143" x2="130.4" y2="158.143"/>
		
			<circle id="XMLID_1250_" fill="none" stroke="#0B8DB9" stroke-width="3.102" stroke-miterlimit="10" cx="77.63" cy="69.188" r="4.8"/>
		
			<circle id="XMLID_1249_" fill="none" stroke="#0B8DB9" stroke-width="3.2" stroke-miterlimit="10" cx="63.594" cy="87.507" r="3.6"/>
		
			<circle id="XMLID_1248_" fill="none" stroke="#0B8DB9" stroke-width="3.2" stroke-miterlimit="10" cx="77.63" cy="87.507" r="3.6"/>
		
			<circle id="XMLID_1247_" fill="none" stroke="#0B8DB9" stroke-width="3.2" stroke-miterlimit="10" cx="91.666" cy="87.507" r="3.6"/>
		
			<circle id="XMLID_1246_" fill="none" stroke="#0B8DB9" stroke-width="3.2" stroke-miterlimit="10" cx="56.576" cy="104.624" r="3.6"/>
		
			<circle id="XMLID_1245_" fill="none" stroke="#0B8DB9" stroke-width="3.2" stroke-miterlimit="10" cx="70.612" cy="104.624" r="3.6"/>
		
			<circle id="XMLID_1244_" fill="none" stroke="#0B8DB9" stroke-width="3.2" stroke-miterlimit="10" cx="84.648" cy="104.624" r="3.6"/>
		
			<circle id="XMLID_1243_" fill="none" stroke="#0B8DB9" stroke-width="3.2" stroke-miterlimit="10" cx="98.684" cy="104.624" r="3.6"/>
		
			<line id="XMLID_1242_" fill="none" stroke="#0B8DB9" stroke-width="2.4" stroke-miterlimit="10" x1="77.63" y1="73.988" x2="77.63" y2="83.906"/>
		
			<line id="XMLID_1241_" fill="none" stroke="#0B8DB9" stroke-width="2.4" stroke-miterlimit="10" x1="74.968" y1="73.314" x2="64.434" y2="83.906"/>
		
			<line id="XMLID_1236_" fill="none" stroke="#0B8DB9" stroke-width="2.4" stroke-miterlimit="10" x1="91.576" y1="91.106" x2="84.557" y2="101.696"/>
		
			<line id="XMLID_1235_" fill="none" stroke="#0B8DB9" stroke-width="2.4" stroke-miterlimit="10" x1="77.487" y1="91.106" x2="70.469" y2="101.696"/>
		
			<line id="XMLID_1229_" fill="none" stroke="#0B8DB9" stroke-width="2.4" stroke-miterlimit="10" x1="91.575" y1="91.106" x2="98.593" y2="101.696"/>
		
			<line id="XMLID_1227_" fill="none" stroke="#0B8DB9" stroke-width="2.4" stroke-miterlimit="10" x1="63.45" y1="91.106" x2="70.469" y2="101.696"/>
		
			<line id="XMLID_1226_" fill="none" stroke="#0B8DB9" stroke-width="2.4" stroke-miterlimit="10" x1="77.54" y1="91.106" x2="84.558" y2="101.696"/>
		
			<line id="XMLID_1224_" fill="none" stroke="#0B8DB9" stroke-width="2.4" stroke-miterlimit="10" x1="63.502" y1="91.106" x2="56.484" y2="101.696"/>
		
			<line id="XMLID_1223_" fill="none" stroke="#0B8DB9" stroke-width="2.4" stroke-miterlimit="10" x1="80.575" y1="73.314" x2="91.11" y2="83.906"/>
	</g>
</g>
<g id="切圖">
</g>
<g id="圖層_2">
</g>
</svg>
