<?xml version="1.0" encoding="utf-8"?>
<!-- Generator: Adobe Illustrator 16.0.0, SVG Export Plug-In . SVG Version: 6.00 Build 0)  -->
<!DOCTYPE svg PUBLIC "-//W3C//DTD SVG 1.1//EN" "http://www.w3.org/Graphics/SVG/1.1/DTD/svg11.dtd">
<svg version="1.1" xmlns="http://www.w3.org/2000/svg" xmlns:xlink="http://www.w3.org/1999/xlink" x="0px" y="0px" width="334px"
	 height="46px" viewBox="0 0 334 46" enable-background="new 0 0 334 46" xml:space="preserve">
<g id="圖層_1">
	<g>
		<g id="XMLID_354_">
			<path id="XMLID_363_" fill="#104573" d="M17.411,28.692c-1.097-0.371-2.164-0.859-3.187-1.459
				c-0.427,0.717-0.907,1.414-1.45,2.081c-3.162,3.889-7.671,6.035-12.31,6.315c0.336,0.323,0.687,0.636,1.054,0.933
				c6.444,5.242,15.538,5.05,21.73-0.004c-0.183-0.138-0.363-0.277-0.54-0.421C20.209,34.104,18.438,31.515,17.411,28.692z"/>
			<path id="XMLID_361_" fill="#145F8F" d="M25.189,16.527c-2.982-0.476-5.877-1.744-8.354-3.831
				C13.001,9.467,10.932,4.923,10.73,0.28c-0.327,0.33-0.645,0.676-0.949,1.037C4.429,7.67,4.465,16.765,9.413,23.043
				c0.139-0.179,0.28-0.358,0.429-0.532C13.75,17.872,19.586,15.816,25.189,16.527z"/>
			<path id="XMLID_360_" fill="#1574A9" d="M28.535,17.309c1.095,0.372,2.163,0.858,3.185,1.461c0.427-0.719,0.908-1.416,1.45-2.083
				c3.162-3.888,7.672-6.035,12.31-6.316c-0.334-0.321-0.685-0.634-1.053-0.93C37.983,4.198,28.89,4.39,22.697,9.443
				c0.181,0.136,0.364,0.276,0.541,0.421C25.735,11.898,27.507,14.487,28.535,17.309z"/>
			<g id="XMLID_357_">
				<path id="XMLID_359_" fill="#0B8DB9" d="M20.755,29.475c-0.174-0.03-0.348-0.054-0.523-0.076
					c-0.953-0.151-1.896-0.393-2.821-0.707c1.027,2.822,2.798,5.412,5.297,7.444c0.177,0.144,0.357,0.283,0.54,0.421
					c0.891-0.729,1.723-1.558,2.478-2.485c1.361-1.674,2.349-3.528,2.986-5.462C26.163,29.514,23.434,29.814,20.755,29.475z"/>
				<path id="XMLID_358_" fill="#0B8DB9" d="M25.189,16.527c0.348,0.055,0.209,0.034,0.523,0.076
					c0.954,0.151,1.897,0.393,2.823,0.707c-1.028-2.822-2.8-5.411-5.298-7.444c-0.177-0.146-0.36-0.285-0.541-0.421
					c-0.892,0.729-1.724,1.558-2.478,2.485c-1.361,1.674-2.348,3.529-2.986,5.463C19.781,16.487,22.51,16.188,25.189,16.527z"/>
			</g>
			<path id="XMLID_356_" fill="#105086" d="M36.531,22.958c-0.14,0.178-0.281,0.356-0.429,0.531
				c-2.041,2.422-4.609,4.133-7.393,5.122c0.001,0,0.003-0.001,0.003-0.001c-0.374,1.137-0.887,2.239-1.507,3.301
				c0.657,0.416,1.293,0.88,1.904,1.394c3.834,3.23,5.903,7.776,6.104,12.416c0.328-0.33,0.643-0.675,0.949-1.036
				C41.515,38.331,41.478,29.237,36.531,22.958z"/>
			<circle id="XMLID_355_" fill="#0B8DB9" cx="23.205" cy="22.724" r="3.791"/>
		</g>
		<g id="XMLID_19_">
			<path id="XMLID_351_" fill="#104573" d="M80.792,22.815c0,8.186-6.636,14.823-14.824,14.823c-8.188,0-14.823-6.637-14.823-14.823
				S57.781,7.993,65.968,7.993C74.156,7.993,80.792,14.629,80.792,22.815z M65.968,13.074c-5.378,0-9.739,4.362-9.739,9.741
				s4.36,9.74,9.739,9.74c5.38,0,9.742-4.361,9.742-9.74S71.348,13.074,65.968,13.074z"/>
			<path id="XMLID_348_" fill="#104573" d="M152.611,16.431c-5.854,0-10.605,4.747-10.605,10.604c0,5.855,4.75,10.603,10.605,10.603
				c5.858,0,10.605-4.748,10.605-10.603C163.216,21.178,158.47,16.431,152.611,16.431z M152.611,32.981
				c-3.048,0-5.521-2.663-5.521-5.946s2.472-5.945,5.521-5.945c3.05,0,5.522,2.662,5.522,5.945S155.662,32.981,152.611,32.981z"/>
			<polygon id="XMLID_347_" fill="#104573" points="280.673,8.355 280.673,20.466 267.317,20.466 267.317,8.355 261.813,8.355 
				261.813,37.654 267.317,37.654 267.317,25.547 280.673,25.547 280.673,37.654 286.178,37.654 286.178,8.355 			"/>
			<path id="XMLID_321_" fill="#104573" d="M322.931,16.431c-2.02,0-3.901,0.571-5.508,1.553V8.355h-5.504v29.299h5.504v-1.567
				c1.607,0.98,3.488,1.551,5.508,1.551c5.859,0,10.605-4.748,10.605-10.603C333.536,21.178,328.79,16.431,322.931,16.431z
				 M322.931,32.981c-2.968,0-5.387-2.528-5.508-5.697v-0.497c0.121-3.167,2.54-5.697,5.508-5.697c3.053,0,5.523,2.662,5.523,5.945
				S325.984,32.981,322.931,32.981z"/>
			<path id="XMLID_307_" fill="#104573" d="M216.748,31.109c-1.008,1.158-2.442,1.883-4.033,1.883c-3.057,0-5.531-2.667-5.531-5.957
				s2.474-5.955,5.531-5.955c1.583,0,3.008,0.717,4.015,1.862l3.457-3.455c-1.918-1.9-4.559-3.075-7.472-3.075
				c-5.865,0-10.622,4.756-10.622,10.623c0,5.865,4.756,10.622,10.622,10.622c2.922,0,5.568-1.18,7.491-3.09L216.748,31.109z"/>
			<path id="XMLID_296_" fill="#104573" d="M98.167,16.492v3.897v8.087c0,2.489-2.017,4.505-4.504,4.505
				c-2.487,0-4.503-2.017-4.503-4.505v-8.087v-3.897h-5.082v11.984c0,5.062,4.291,9.163,9.585,9.163c1.629,0,3.161-0.39,4.504-1.074
				v0.001v0.967h5.082v-9.057V16.492H98.167z"/>
			<path id="XMLID_294_" fill="#104573" d="M179.77,16.492v3.897v8.087c0,2.489-2.017,4.505-4.503,4.505
				c-2.489,0-4.504-2.017-4.504-4.505v-8.087v-3.897h-5.083v11.984c0,5.062,4.29,9.163,9.587,9.163c1.628,0,3.16-0.39,4.503-1.074
				v0.969h5.082v-9.057V16.492H179.77z"/>
			<path id="XMLID_268_" fill="#104573" d="M303.551,16.492v3.897v8.087c0,2.489-2.016,4.505-4.503,4.505
				c-2.487,0-4.504-2.017-4.504-4.505v-8.087v-3.897h-5.081v11.984c0,5.062,4.29,9.163,9.585,9.163c1.628,0,3.161-0.39,4.503-1.074
				v0.969h5.083v-9.057V16.492H303.551z"/>
			<path id="XMLID_262_" fill="#104573" d="M198.739,16.431c-2.026,0-3.914,0.579-5.523,1.564v-1.504h-5.081v21.04h5.081v-10.52
				h0.002c0.013-3.272,2.479-5.921,5.521-5.921c0.683,0,1.332,0.139,1.936,0.383v-4.856C200.046,16.5,199.402,16.431,198.739,16.431
				z"/>
			<path id="XMLID_243_" fill="#104573" d="M256.592,16.431c-2.026,0-3.912,0.579-5.521,1.564v-1.504h-5.083v21.04h5.083v-10.52
				h0.001c0.011-3.272,2.479-5.921,5.52-5.921c0.684,0,1.334,0.139,1.936,0.383v-4.856C257.899,16.5,257.254,16.431,256.592,16.431z
				"/>
			<path id="XMLID_236_" fill="#104573" d="M239.566,19.508l0.021-0.021c-1.918-1.9-4.559-3.075-7.472-3.075
				c-5.5,0-10.024,4.182-10.566,9.539c-0.038,0.357-0.055,0.718-0.055,1.084s0.018,0.728,0.055,1.084
				c0.542,5.356,5.066,9.538,10.566,9.538c2.922,0,5.568-1.18,7.489-3.09l-3.458-3.458c-0.434,0.499-0.951,0.911-1.521,1.225v-0.016
				c-0.758,0.422-1.616,0.663-2.528,0.663c-1.143,0-2.204-0.374-3.084-1.014c-1.112-0.812-1.928-2.053-2.261-3.498h10.7h4.302h0.841
				c0.064-0.47,0.107-0.946,0.107-1.434C242.703,24.092,241.502,21.43,239.566,19.508z M229.014,22.105
				c0.88-0.642,1.942-1.015,3.084-1.015c2.189,0,4.075,1.374,4.97,3.363h-9.931C227.564,23.503,228.211,22.692,229.014,22.105z"/>
			<path id="XMLID_232_" fill="#104573" d="M140.364,31.096c0-2.374-1.29-4.443-3.203-5.558c-0.833-0.486-1.783-0.787-2.799-0.854
				c-0.144-0.01-0.287-0.023-0.434-0.023c-0.177,0-0.352,0.008-0.525,0.023h-2.096v-0.026c-1.215,0-2.201-0.797-2.201-1.779
				c0-0.981,0.986-1.777,2.201-1.777h6.182h2.374v-4.654h-8.508c-0.016,0-0.031-0.003-0.047-0.003c-0.025,0-0.051,0.003-0.077,0.003
				h-0.105v0.005c-3.469,0.097-6.253,2.933-6.253,6.426c0,2.375,1.29,4.444,3.203,5.559c0.833,0.484,1.784,0.788,2.799,0.855
				c0.145,0.01,0.288,0.022,0.434,0.022c0.178,0,0.353-0.008,0.526-0.022h2.095v0.025c1.216,0,2.202,0.796,2.202,1.777
				s-0.986,1.777-2.202,1.777h-6.181h-2.875v4.655h9.01c0.016,0,0.031,0.005,0.046,0.005c0.026,0,0.051-0.003,0.078-0.005h0.104
				v-0.005C137.581,37.427,140.364,34.589,140.364,31.096z"/>
			<path id="XMLID_231_" fill="#104573" d="M120.53,32.873v-0.008c-2.74-0.095-4.953-2.249-5.142-4.962
				c-0.052-0.282-0.085-0.571-0.085-0.868V21.09h6.506v-4.659h-6.506v-3.103h-5.083v3.103h-3.688v4.659h3.688v5.945
				c0,5.855,4.748,10.603,10.604,10.603c0.479,0,0.946-0.043,1.408-0.103v-4.663H120.53z"/>
		</g>
	</g>
</g>
<g id="圖層_2">
</g>
</svg>
